<?xml version="1.0" encoding="utf-8"?>
<svg version="1.1" id="Layer_1" xmlns="http://www.w3.org/2000/svg" xmlns:xlink="http://www.w3.org/1999/xlink" x="0px" y="0px"
	 viewBox="0 0 31.1 23.5" style="color: inherit; enable-background:new 0 0 31.1 23.5;" xml:space="preserve">
<path fill="currentColor" d="M31.1,2.5V4L16.6,14c-0.6,0.4-1.4,0.4-2,0L0,4.1V2.5C0,1.1,1.1,0,2.5,0h26.1C30,0,31.1,1.1,31.1,2.5z"/>
<path fill="currentColor" d="M17.6,16.1l13.5-9.2V21c0,1.4-1.1,2.5-2.5,2.5H2.5C1.1,23.5,0,22.4,0,21V6.9l13.5,9.2l1.1,0.7c0.6,0.4,1.4,0.4,2,0
	L17.6,16.1z"/>
</svg>
