<?xml version="1.0" encoding="utf-8"?>
<!-- Generator: Adobe Illustrator 21.0.0, SVG Export Plug-In . SVG Version: 6.00 Build 0)  -->
<svg version="1.1" id="Layer_1" xmlns="http://www.w3.org/2000/svg" xmlns:xlink="http://www.w3.org/1999/xlink" x="0px" y="0px"
	 viewBox="0 0 36 36" style="enable-background:new 0 0 36 36;" xml:space="preserve">
<title>Asset 1</title>
<path d="M33.3,0H2.7C1.2,0,0,1.1,0,2.6v30.8C0,34.9,1.2,36,2.7,36l0,0h30.7c1.5,0,2.6-1.1,2.7-2.6V2.6C36,1.1,34.8,0,33.3,0L33.3,0z
	 M10.7,30.7H5.3V13.5h5.4C10.7,13.5,10.7,30.7,10.7,30.7z M8,11.1c-1.7,0-3.1-1.4-3.1-3.1S6.3,4.9,8,4.9s3.1,1.4,3.1,3.1
	C11.1,9.8,9.7,11.1,8,11.1L8,11.1z M30.7,30.7h-5.3v-8.4c0-2,0-4.5-2.8-4.5s-3.2,2.2-3.2,4.4v8.5H14V13.5h5.1v2.3h0.1
	c1-1.8,3-2.8,5-2.8c5.4,0,6.4,3.6,6.4,8.2L30.7,30.7z"/>
</svg>
